<svg width="674" height="227" viewBox="0 0 674 227" fill="none" xmlns="http://www.w3.org/2000/svg">
<path d="M0.382103 183.648V147.32L91.4688 3.81818H122.79V54.1023H104.253L46.831 144.976V146.68H176.27V183.648H0.382103ZM105.105 222V172.568L105.957 156.482V3.81818H149.21V222H105.105ZM292.552 226.794C274.228 226.723 258.461 222.213 245.251 213.264C232.112 204.315 221.991 191.354 214.888 174.379C207.857 157.405 204.377 136.986 204.448 113.122C204.448 89.3295 207.964 69.0526 214.995 52.2912C222.097 35.5298 232.218 22.7812 245.357 14.0455C258.567 5.23863 274.299 0.835219 292.552 0.835219C310.805 0.835219 326.501 5.23863 339.64 14.0455C352.85 22.8523 363.006 35.6364 370.109 52.3977C377.211 69.0881 380.727 89.3295 380.656 113.122C380.656 137.057 377.104 157.511 370.002 174.486C362.971 191.46 352.886 204.422 339.746 213.371C326.607 222.32 310.876 226.794 292.552 226.794ZM292.552 188.548C305.052 188.548 315.031 182.263 322.488 169.692C329.945 157.121 333.638 138.264 333.567 113.122C333.567 96.5739 331.863 82.7955 328.454 71.7869C325.116 60.7784 320.357 52.5043 314.178 46.9645C308.07 41.4247 300.862 38.6548 292.552 38.6548C280.123 38.6548 270.18 44.8693 262.722 57.2983C255.265 69.7273 251.501 88.3352 251.43 113.122C251.43 129.884 253.099 143.875 256.437 155.097C259.846 166.247 264.64 174.628 270.819 180.239C276.998 185.778 284.242 188.548 292.552 188.548ZM410.245 183.648V147.32L501.332 3.81818H532.653V54.1023H514.116L456.694 144.976V146.68H586.133V183.648H410.245ZM514.968 222V172.568L515.821 156.482V3.81818H559.074V222H514.968ZM671.52 3.81818L667.365 156.588H628.374L624.113 3.81818H671.52ZM647.87 224.77C640.838 224.77 634.801 222.284 629.759 217.312C624.716 212.27 622.23 206.233 622.301 199.202C622.23 192.241 624.716 186.276 629.759 181.304C634.801 176.332 640.838 173.847 647.87 173.847C654.617 173.847 660.547 176.332 665.661 181.304C670.775 186.276 673.367 192.241 673.438 199.202C673.367 203.889 672.124 208.186 669.709 212.092C667.365 215.928 664.276 219.017 660.441 221.361C656.605 223.634 652.415 224.77 647.87 224.77Z" fill="black"/>
</svg>
